<svg width="172" height="32" viewBox="0 0 172 32" fill="none" xmlns="http://www.w3.org/2000/svg">
  <g clip-path="url(#clip0_98_12704)">
    <path d="M68.0821 6.28394H64.5V22.4472H74.4164V19.2801H68.0821V6.28394Z" fill="#4845D2"/>
    <path
      d="M74.7585 16.9648C74.7585 20.4159 77.0738 22.7093 80.5685 22.7093C84.0414 22.7093 86.3567 20.4159 86.3567 16.9648C86.3567 13.5137 84.0414 11.1984 80.5685 11.1984C77.0738 11.1984 74.7585 13.5137 74.7585 16.9648ZM78.144 16.9429C78.144 15.3048 79.1051 14.2127 80.5685 14.2127C82.0101 14.2127 82.9712 15.3048 82.9712 16.9429C82.9712 18.603 82.0101 19.6951 80.5685 19.6951C79.1051 19.6951 78.144 18.603 78.144 16.9429Z"
      fill="#4845D2"/>
    <path
      d="M86.8978 16.7901C86.8978 20.0882 89.0384 22.3161 92.0744 22.3161C93.5379 22.3161 94.8047 21.7919 95.4381 20.9401V22.4472C95.4381 23.9543 94.4989 24.959 92.8389 24.959C91.3536 24.959 90.327 24.2601 90.2615 23.0151H86.8541C87.1599 26.0075 89.4752 28.0169 92.6423 28.0169C96.3773 28.0169 98.7363 25.5925 98.7363 21.7482V11.5261H95.7002L95.5255 12.64C94.9139 11.7445 93.6252 11.1548 92.14 11.1548C89.082 11.1548 86.8978 13.4482 86.8978 16.7901ZM90.3052 16.7027C90.3052 15.13 91.3536 14.0816 92.686 14.0816C94.2368 14.0816 95.3726 15.1082 95.3726 16.7027C95.3726 18.2972 94.2586 19.3893 92.7078 19.3893C91.3755 19.3893 90.3052 18.2972 90.3052 16.7027Z"
      fill="#4845D2"/>
    <path
      d="M99.7166 16.9648C99.7166 20.4159 102.032 22.7093 105.527 22.7093C109 22.7093 111.315 20.4159 111.315 16.9648C111.315 13.5137 109 11.1984 105.527 11.1984C102.032 11.1984 99.7166 13.5137 99.7166 16.9648ZM103.102 16.9429C103.102 15.3048 104.063 14.2127 105.527 14.2127C106.968 14.2127 107.929 15.3048 107.929 16.9429C107.929 18.603 106.968 19.6951 105.527 19.6951C104.063 19.6951 103.102 18.603 103.102 16.9429Z"
      fill="#4845D2"/>
    <path
      d="M114.215 9.82239C115.263 9.82239 116.115 8.97054 116.115 7.90027C116.115 6.83 115.263 6 114.215 6C113.145 6 112.293 6.83 112.293 7.90027C112.293 8.97054 113.145 9.82239 114.215 9.82239ZM112.511 22.4472H115.897V11.5261H112.511V22.4472Z"
      fill="#4845D2"/>
    <path
      d="M117.868 27.6893H121.188V21.3551C121.821 22.1851 123.263 22.753 124.77 22.753C128.024 22.753 129.99 20.263 129.903 16.8119C129.815 13.2953 127.784 11.1766 124.748 11.1766C123.197 11.1766 121.734 11.8537 121.122 12.8585L120.947 11.5261H117.868V27.6893ZM121.253 16.9866C121.253 15.3485 122.345 14.2564 123.918 14.2564C125.512 14.2564 126.517 15.3703 126.517 16.9866C126.517 18.603 125.512 19.7169 123.918 19.7169C122.345 19.7169 121.253 18.6248 121.253 16.9866Z"
      fill="#4845D2"/>
    <path
      d="M130.261 18.9961C130.348 21.2022 132.096 22.7311 134.848 22.7311C137.491 22.7311 139.326 21.3332 139.326 19.0835C139.326 17.4672 138.365 16.3969 136.573 15.96L134.63 15.4795C133.931 15.3048 133.494 15.13 133.494 14.5621C133.494 13.9942 133.952 13.6229 134.63 13.6229C135.394 13.6229 135.896 14.1253 135.875 14.8679H138.911C138.823 12.5963 137.098 11.1766 134.695 11.1766C132.271 11.1766 130.458 12.6182 130.458 14.8024C130.458 16.2658 131.266 17.4672 133.428 18.0351L135.35 18.5374C135.918 18.6903 136.158 18.9524 136.158 19.3237C136.158 19.8698 135.656 20.2193 134.804 20.2193C133.821 20.2193 133.297 19.7606 133.297 18.9961H130.261Z"
      fill="#4845D2"/>
    <path
      d="M144.474 22.7311C145.807 22.7311 147.139 22.1195 147.816 21.224L148.035 22.4472H151.202V11.5261H147.838V17.2051C147.838 18.8432 147.358 19.7387 145.807 19.7387C144.605 19.7387 143.819 19.1927 143.819 17.1614V11.5261H140.455V18.3845C140.455 20.9838 141.897 22.7311 144.474 22.7311Z"
      fill="#4845D2"/>
    <path
      d="M156.536 22.4472V16.4843C156.536 14.6495 157.519 14.1253 158.48 14.1253C159.55 14.1253 160.249 14.7806 160.249 16.1348V22.4472H163.569V16.4843C163.569 14.6277 164.53 14.1035 165.491 14.1035C166.561 14.1035 167.282 14.7587 167.282 16.1348V22.4472H170.559V15.3048C170.559 12.8148 169.248 11.1548 166.43 11.1548C164.858 11.1548 163.569 11.9192 163.001 13.0987C162.346 11.9192 161.21 11.1548 159.397 11.1548C158.196 11.1548 157.082 11.7008 156.427 12.5745L156.296 11.5261H153.15V22.4472H156.536Z"
      fill="#4845D2"/>
    <path
      d="M0.5 16C0.5 7.16344 7.66344 0 16.5 0H37.5C46.3366 0 53.5 7.16344 53.5 16V32H16.5C7.66344 32 0.5 24.8366 0.5 16Z"
      fill="#4845D2"/>
    <path
      d="M37.5 6H16.5C10.9772 6 6.5 10.4772 6.5 16C6.5 21.5228 10.9772 26 16.5 26H37.5C43.0228 26 47.5 21.5228 47.5 16C47.5 10.4772 43.0228 6 37.5 6Z"
      fill="#A5B4FC"/>
    <path
      d="M16.5 21C19.2614 21 21.5 18.7614 21.5 16C21.5 13.2386 19.2614 11 16.5 11C13.7386 11 11.5 13.2386 11.5 16C11.5 18.7614 13.7386 21 16.5 21Z"
      fill="black"/>
    <path
      d="M14.5 15C15.0523 15 15.5 14.5523 15.5 14C15.5 13.4477 15.0523 13 14.5 13C13.9477 13 13.5 13.4477 13.5 14C13.5 14.5523 13.9477 15 14.5 15Z"
      fill="white"/>
    <path
      d="M38.5 21C41.2614 21 43.5 18.7614 43.5 16C43.5 13.2386 41.2614 11 38.5 11C35.7386 11 33.5 13.2386 33.5 16C33.5 18.7614 35.7386 21 38.5 21Z"
      fill="black"/>
    <path
      d="M36.5 15C37.0523 15 37.5 14.5523 37.5 14C37.5 13.4477 37.0523 13 36.5 13C35.9477 13 35.5 13.4477 35.5 14C35.5 14.5523 35.9477 15 36.5 15Z"
      fill="white"/>
  </g>
  <defs>
    <clipPath id="clip0_98_12704">
      <rect width="171" height="32" fill="white" transform="translate(0.5)"/>
    </clipPath>
  </defs>
</svg>
